# 3ds Max Wavefront OBJ Exporter v0.97b - (c)2007 guruware
# File Created: 02.07.2020 11:59:05

mtllib Bandera_obj.mtl

#
# object RetopoGroup1
#

v  -0.0154 24.5994 5.5113
v  -0.2291 11.0380 2.4408
v  1.9643 24.6215 1.5204
v  0.2018 9.7099 -1.4828
v  2.7296 24.7274 -2.0371
v  -1.2692 11.4218 -11.5045
v  1.4576 25.2391 -8.3061
v  0.3463 8.6071 -4.8517
v  3.5341 23.7039 -18.4132
v  2.1418 6.0484 -20.9720
v  2.9996 24.4837 -21.9255
v  1.5385 3.6916 -25.8814
v  4.5915 44.1740 -16.1103
v  2.5060 43.8952 -17.9150
v  3.1477 43.7902 -6.8987
v  2.4161 42.5908 1.8401
v  -0.2031 42.2550 10.2450
v  2.1438 42.3593 5.9257
v  -1.4179 59.1785 17.9760
v  -0.4698 48.3018 13.1534
v  1.0778 58.6758 12.2238
v  1.6390 48.3194 7.8209
v  1.7225 58.9744 -4.9473
v  3.1123 48.3516 3.1994
v  2.2773 49.5729 -6.2495
v  1.9387 58.2944 6.9856
v  3.2971 50.2727 -15.1270
v  1.8201 50.0878 -17.2977
v  1.7249 59.8616 -14.1209
v  0.6856 59.6065 -17.6742
v  2.4655 86.7775 -16.6221
v  -0.7049 86.6922 -22.2190
v  4.5887 87.6731 -2.6768
v  4.0268 86.6496 9.8612
v  -2.7064 86.6496 23.0388
v  4.1319 86.9088 16.9261
v  -3.3544 106.7433 26.2040
v  3.1414 101.0587 18.5362
v  -1.3163 107.1109 18.4089
v  -3.3745 100.0883 25.6038
v  3.7501 100.7375 -0.9375
v  0.4499 94.0390 11.1334
v  2.9920 94.6581 -1.8782
v  1.4318 100.3727 11.4149
v  4.2403 94.7886 -16.5325
v  0.6169 95.3194 -19.9740
v  4.1089 101.7140 -17.1880
v  -1.4460 100.2337 -25.0774
v  2.0616 107.7705 12.3056
v  3.5729 107.7376 -16.8081
v  3.6996 108.2519 -1.0692
v  -3.0198 106.6425 -26.7119
v  -2.7472 84.7305 -24.5543
v  -1.0362 59.3011 -21.4606
v  0.0316 49.8581 -19.6807
v  0.7832 43.6623 -20.2043
v  0.9384 25.3671 -25.5778
v  0.9694 0.6749 -31.2071
v  3.9879 94.4231 17.7629
v  -3.0782 93.6866 24.2749
v  -3.5458 123.6053 -29.9562
v  -1.0099 126.7327 -17.3289
v  -1.6278 126.6702 -1.6279
v  -1.5353 125.5256 11.3050
v  -1.2134 123.2613 17.0678
v  -4.5915 118.0620 23.3449
v  -3.9757 124.0475 31.9742
v  -1.0601 129.3223 19.8448
v  -1.5789 131.0677 11.4090
v  -1.9019 131.9823 -1.8055
v  -1.1408 133.2672 -16.8163
v  -3.6062 133.7326 -33.9637
v  -3.5175 134.7533 35.3144
v  -0.7987 151.7528 29.1267
v  -3.5886 151.1852 40.2313
v  -0.9316 138.2068 23.5247
v  0.0950 152.0263 10.7233
v  -1.2733 139.3725 11.1494
v  -1.3456 152.0550 0.1140
v  -1.6599 139.9347 -1.0446
v  0.3132 141.8230 -16.3868
v  1.3873 154.8923 -15.6950
v  -3.3791 141.5553 -35.5359
v  -3.1659 153.4877 -37.9080
v  0.1033 171.3107 -32.9206
v  -2.9926 165.5944 -41.9738
v  -4.1091 170.6448 -43.0908
v  -0.0551 175.4789 -36.3121
v  -3.7963 176.3891 -48.9643
v  -0.2252 180.0784 -41.2502
v  -3.6548 186.0470 -52.4729
v  -2.1888 189.1528 -50.3770
v  -0.6841 175.6921 42.7818
v  -2.7835 176.1520 50.5792
v  -2.7989 172.8147 49.2293
v  -0.9144 179.3574 44.8547
v  -0.6560 165.2475 36.8342
v  -2.2234 180.0379 34.7427
v  -1.3416 167.7738 24.2779
v  -2.7964 172.7987 2.0789
v  -2.0543 163.7522 1.2268
v  -0.9810 166.3496 -13.2476
v  -0.7262 177.3039 -28.0002
v  -0.9816 180.4370 -32.2787
v  -0.8053 183.8576 -37.9322
v  -2.4284 189.7450 -49.5742
v  -3.3397 181.0089 52.4729
v  -2.8109 184.5201 49.9127
v  -3.0989 184.6830 41.6074
v  -2.1104 175.2740 -11.3103
v  -1.6895 181.9386 -24.1484
v  -2.0068 184.2972 -29.1051
v  -2.3188 186.6949 -35.3151
v  -2.7014 189.9502 -48.8368
v  -3.6170 163.4299 45.1865
v  -3.3256 175.9518 2.3734
v  -2.8271 178.3751 -10.6592
v  -2.4934 183.4812 -22.8344
v  -2.8304 185.5311 -28.0361
v  -3.0999 187.6038 -34.4246
v  -2.8465 189.9835 -48.3752
# 121 vertices

vn 0.9107 -0.1240 0.3939
vn 0.9421 -0.1312 0.3086
vn 0.9603 -0.1062 0.2578
vn 0.9672 -0.1498 0.2051
vn 0.9963 -0.0858 0.0025
vn 0.9842 -0.1587 0.0790
vn 0.9940 -0.1021 0.0389
vn 0.9880 -0.1371 -0.0714
vn 0.9971 -0.0755 -0.0010
vn 0.9954 -0.0946 0.0156
vn 0.9367 0.0450 -0.3473
vn 0.9705 0.0064 -0.2410
vn 0.9733 0.0885 -0.2117
vn 0.8191 0.1347 -0.5577
vn 0.9972 0.0170 0.0731
vn 0.9972 -0.0267 0.0701
vn 0.8945 -0.1122 0.4327
vn 0.9492 -0.0827 0.3035
vn 0.8364 -0.1223 0.5344
vn 0.9121 -0.1045 0.3965
vn 0.9406 -0.0942 0.3263
vn 0.9483 -0.0692 0.3097
vn 0.9998 0.0138 -0.0153
vn 0.9961 0.0109 0.0877
vn 0.9947 0.0945 0.0409
vn 0.9961 -0.0279 0.0832
vn 0.9614 0.1613 -0.2230
vn 0.8245 0.1360 -0.5492
vn 0.9773 0.0301 -0.2098
vn 0.8876 0.0291 -0.4597
vn 0.9504 -0.0479 -0.3072
vn 0.8591 -0.0446 -0.5099
vn 0.9992 0.0395 0.0061
vn 0.9952 0.0978 -0.0017
vn 0.7237 -0.1049 0.6820
vn 0.9492 -0.0009 0.3147
vn 0.8716 0.1910 0.4515
vn 0.9506 0.1307 0.2816
vn 0.9220 0.1890 0.3379
vn 0.7831 0.1136 0.6114
vn 0.9934 -0.0545 0.1011
vn 0.9902 0.1153 -0.0792
vn 0.9957 0.0332 0.0864
vn 0.9999 0.0116 0.0116
vn 0.9518 -0.0709 -0.2984
vn 0.7842 -0.1169 -0.6094
vn 0.9499 -0.0164 -0.3120
vn 0.8082 0.0008 -0.5889
vn 0.9765 0.1466 0.1579
vn 0.9647 0.1219 -0.2335
vn 0.9900 0.1273 0.0604
vn 0.8775 0.0864 -0.4718
vn 0.8556 -0.0247 -0.5170
vn 0.8613 0.0074 -0.5080
vn 0.8290 0.0946 -0.5511
vn 0.8170 0.1453 -0.5580
vn 0.9092 0.0877 -0.4071
vn 0.9572 0.0305 -0.2877
vn 0.9699 0.0413 0.2400
vn 0.6925 -0.0652 0.7184
vn 0.9608 0.0321 -0.2754
vn 0.9886 0.0852 -0.1238
vn 0.9901 0.1379 0.0274
vn 0.9941 0.0969 0.0490
vn 0.9826 -0.0172 0.1850
vn 0.9497 -0.0498 0.3093
vn 0.9692 -0.1572 0.1897
vn 0.9934 -0.0898 0.0720
vn 0.9994 -0.0038 -0.0358
vn 0.9996 -0.0195 0.0216
vn 0.9972 -0.0540 -0.0512
vn 0.9832 -0.0770 -0.1657
vn 0.9754 -0.0872 0.2022
vn 0.9917 -0.0471 0.1195
vn 0.9632 -0.1112 0.2448
vn 0.9931 -0.0656 0.0969
vn 0.9989 0.0169 -0.0439
vn 0.9985 -0.0442 -0.0332
vn 0.9993 0.0199 0.0312
vn 0.9973 -0.0677 0.0268
vn 0.9956 -0.0866 -0.0354
vn 0.9999 0.0043 0.0091
vn 0.9798 -0.0851 -0.1812
vn 0.9747 -0.0945 -0.2026
vn 0.9932 0.0148 -0.1154
vn 0.9547 -0.0936 -0.2823
vn 0.9226 -0.1841 -0.3389
vn 0.9908 -0.0281 -0.1325
vn 0.9151 -0.2304 -0.3309
vn 0.9871 -0.0541 -0.1507
vn 0.9184 -0.1559 -0.3636
vn 0.9797 0.0254 -0.1987
vn 0.9958 0.0161 0.0902
vn 0.9590 -0.0410 0.2805
vn 0.9538 -0.1376 0.2672
vn 0.9859 0.1411 0.0901
vn 0.9925 -0.0404 0.1151
vn 0.9806 0.1823 -0.0725
vn 0.9962 0.0798 -0.0348
vn 0.9895 0.1441 0.0140
vn 0.9941 0.1058 0.0250
vn 0.9880 0.1158 0.1022
vn 0.9875 0.1400 0.0729
vn 0.9824 0.1704 0.0768
vn 0.9641 0.2565 0.0685
vn 0.9613 0.2754 0.0108
vn 0.9542 0.0269 0.2979
vn 0.9706 0.1575 0.1823
vn 0.9553 0.2866 -0.0729
vn 0.9833 0.1534 0.0981
vn 0.9628 0.2483 0.1063
vn 0.9300 0.3513 0.1080
vn 0.8821 0.4558 0.1187
vn 0.8834 0.4596 0.0911
vn 0.9507 -0.1563 0.2679
vn 0.9777 0.2099 0.0034
vn 0.9690 0.2190 0.1141
vn 0.9368 0.3214 0.1383
vn 0.8804 0.4558 0.1312
vn 0.8296 0.5421 0.1337
vn 0.7886 0.6030 0.1200
# 121 vertex normals

vt 0.2519 0.9374 0.0000
vt 0.1964 0.9910 0.0000
vt 0.2335 0.9252 0.0000
vt 0.1742 0.9852 0.0000
vt 0.2173 0.9139 0.0000
vt 0.1330 0.9468 0.0000
vt 0.1898 0.8924 0.0000
vt 0.1552 0.9801 0.0000
vt 0.1383 0.8688 0.0000
vt 0.0727 0.9429 0.0000
vt 0.1244 0.8545 0.0000
vt 0.0428 0.9389 0.0000
vt 0.2112 0.7809 0.0000
vt 0.2020 0.7767 0.0000
vt 0.2528 0.8107 0.0000
vt 0.2896 0.8429 0.0000
vt 0.3276 0.8700 0.0000
vt 0.3079 0.8564 0.0000
vt 0.4149 0.8150 0.0000
vt 0.3595 0.8508 0.0000
vt 0.3867 0.7999 0.0000
vt 0.3348 0.8345 0.0000
vt 0.3080 0.7462 0.0000
vt 0.3135 0.8203 0.0000
vt 0.2734 0.7859 0.0000
vt 0.3613 0.7857 0.0000
vt 0.2343 0.7556 0.0000
vt 0.2237 0.7499 0.0000
vt 0.2682 0.7142 0.0000
vt 0.2509 0.7046 0.0000
vt 0.3385 0.5818 0.0000
vt 0.3122 0.5652 0.0000
vt 0.4058 0.6201 0.0000
vt 0.4609 0.6630 0.0000
vt 0.5220 0.7031 0.0000
vt 0.4944 0.6833 0.0000
vt 0.5978 0.6195 0.0000
vt 0.5449 0.6225 0.0000
vt 0.5627 0.5941 0.0000
vt 0.5747 0.6485 0.0000
vt 0.4536 0.5648 0.0000
vt 0.4892 0.6326 0.0000
vt 0.4308 0.5901 0.0000
vt 0.5098 0.6041 0.0000
vt 0.3632 0.5449 0.0000
vt 0.3489 0.5320 0.0000
vt 0.3813 0.5108 0.0000
vt 0.3402 0.4937 0.0000
vt 0.5364 0.5725 0.0000
vt 0.4013 0.4841 0.0000
vt 0.4759 0.5296 0.0000
vt 0.3521 0.4590 0.0000
vt 0.2954 0.5672 0.0000
vt 0.2324 0.6945 0.0000
vt 0.2120 0.7437 0.0000
vt 0.1907 0.7708 0.0000
vt 0.1101 0.8393 0.0000
vt 0.0089 0.9367 0.0000
vt 0.5211 0.6510 0.0000
vt 0.5491 0.6742 0.0000
vt 0.3887 0.3705 0.0000
vt 0.4567 0.3944 0.0000
vt 0.5293 0.4425 0.0000
vt 0.5858 0.4871 0.0000
vt 0.6056 0.5151 0.0000
vt 0.6189 0.5583 0.0000
vt 0.6772 0.5568 0.0000
vt 0.6370 0.4955 0.0000
vt 0.6032 0.4617 0.0000
vt 0.5447 0.4173 0.0000
vt 0.4790 0.3657 0.0000
vt 0.4009 0.3113 0.0000
vt 0.7252 0.5174 0.0000
vt 0.7482 0.4197 0.0000
vt 0.7980 0.4561 0.0000
vt 0.6810 0.4655 0.0000
vt 0.6637 0.3625 0.0000
vt 0.6272 0.4224 0.0000
vt 0.6146 0.3301 0.0000
vt 0.5724 0.3827 0.0000
vt 0.5070 0.3273 0.0000
vt 0.5500 0.2688 0.0000
vt 0.4174 0.2703 0.0000
vt 0.4427 0.2077 0.0000
vt 0.5200 0.1403 0.0000
vt 0.4607 0.1392 0.0000
vt 0.4708 0.1124 0.0000
vt 0.5170 0.1106 0.0000
vt 0.4611 0.0679 0.0000
vt 0.5081 0.0743 0.0000
vt 0.4742 0.0125 0.0000
vt 0.4934 0.0044 0.0000
vt 0.8844 0.3502 0.0000
vt 0.9219 0.3718 0.0000
vt 0.9055 0.3832 0.0000
vt 0.9051 0.3396 0.0000
vt 0.8250 0.3806 0.0000
vt 0.8603 0.3056 0.0000
vt 0.7745 0.3307 0.0000
vt 0.6868 0.2398 0.0000
vt 0.6554 0.2792 0.0000
vt 0.5962 0.2231 0.0000
vt 0.5611 0.1275 0.0000
vt 0.5508 0.0999 0.0000
vt 0.5350 0.0669 0.0000
vt 0.4989 0.0041 0.0000
vt 0.9455 0.3551 0.0000
vt 0.9443 0.3310 0.0000
vt 0.9063 0.3050 0.0000
vt 0.6323 0.1876 0.0000
vt 0.5930 0.1177 0.0000
vt 0.5772 0.0917 0.0000
vt 0.5557 0.0617 0.0000
vt 0.5029 0.0054 0.0000
vt 0.8582 0.4144 0.0000
vt 0.6978 0.2261 0.0000
vt 0.6447 0.1752 0.0000
vt 0.6038 0.1145 0.0000
vt 0.5859 0.0892 0.0000
vt 0.5626 0.0602 0.0000
vt 0.5052 0.0067 0.0000
# 121 texture coords

o RetopoGroup1
g RetopoGroup1
usemtl Default
s off
f 1/1/1 2/2/2 3/3/3 
f 3/3/3 2/2/2 4/4/4 
f 5/5/5 6/6/6 7/7/7 
f 6/6/6 5/5/5 8/8/8 
f 9/9/9 7/7/7 6/6/6 
f 6/6/6 10/10/10 9/9/9 
f 10/10/10 11/11/11 9/9/9 
f 12/12/12 11/11/11 10/10/10 
f 13/13/13 9/9/9 14/14/14 
f 14/14/14 9/9/9 11/11/11 
f 7/7/7 13/13/13 15/15/15 
f 13/13/13 7/7/7 9/9/9 
f 15/15/15 5/5/5 7/7/7 
f 5/5/5 15/15/15 16/16/16 
f 17/17/17 1/1/1 18/18/18 
f 18/18/18 1/1/1 3/3/3 
f 19/19/19 20/20/20 21/21/21 
f 21/21/21 20/20/20 22/22/22 
f 23/23/23 24/24/24 25/25/25 
f 24/24/24 23/23/23 26/26/26 
f 15/15/15 27/27/27 25/25/25 
f 27/27/27 15/15/15 13/13/13 
f 27/27/27 13/13/13 28/28/28 
f 28/28/28 13/13/13 14/14/14 
f 16/16/16 25/25/25 24/24/24 
f 25/25/25 16/16/16 15/15/15 
f 29/29/29 25/25/25 27/27/27 
f 25/25/25 29/29/29 23/23/23 
f 29/29/29 27/27/27 30/30/30 
f 30/30/30 27/27/27 28/28/28 
f 20/20/20 17/17/17 22/22/22 
f 22/22/22 17/17/17 18/18/18 
f 31/31/31 30/30/30 32/32/32 
f 30/30/30 31/31/31 29/29/29 
f 33/33/33 29/29/29 31/31/31 
f 29/29/29 33/33/33 23/23/23 
f 33/33/33 26/26/26 23/23/23 
f 26/26/26 33/33/33 34/34/34 
f 35/35/35 19/19/19 36/36/36 
f 36/36/36 19/19/19 21/21/21 
f 37/37/37 38/38/38 39/39/39 
f 38/38/38 37/37/37 40/40/40 
f 41/41/41 42/42/42 43/43/43 
f 42/42/42 41/41/41 44/44/44 
f 33/33/33 45/45/45 43/43/43 
f 45/45/45 33/33/33 31/31/31 
f 31/31/31 46/46/46 45/45/45 
f 46/46/46 31/31/31 32/32/32 
f 34/34/34 43/43/43 42/42/42 
f 43/43/43 34/34/34 33/33/33 
f 41/41/41 45/45/45 47/47/47 
f 45/45/45 41/41/41 43/43/43 
f 47/47/47 46/46/46 48/48/48 
f 46/46/46 47/47/47 45/45/45 
f 49/49/49 38/38/38 44/44/44 
f 38/38/38 49/49/49 39/39/39 
f 50/50/50 41/41/41 47/47/47 
f 41/41/41 50/50/50 51/51/51 
f 52/52/52 50/50/50 47/47/47 
f 52/52/52 47/47/47 48/48/48 
f 32/32/32 30/30/30 53/53/53 
f 53/53/53 30/30/30 54/54/54 
f 30/30/30 55/55/55 54/54/54 
f 55/55/55 30/30/30 28/28/28 
f 28/28/28 14/14/14 55/55/55 
f 14/14/14 56/56/56 55/55/55 
f 57/57/57 56/56/56 11/11/11 
f 14/14/14 11/11/11 56/56/56 
f 58/58/58 57/57/57 12/12/12 
f 11/11/11 12/12/12 57/57/57 
f 51/51/51 44/44/44 41/41/41 
f 44/44/44 51/51/51 49/49/49 
f 44/44/44 59/59/59 42/42/42 
f 59/59/59 44/44/44 38/38/38 
f 38/38/38 40/40/40 60/60/60 
f 38/38/38 60/60/60 59/59/59 
f 60/60/60 36/36/36 59/59/59 
f 36/36/36 60/60/60 35/35/35 
f 36/36/36 42/42/42 59/59/59 
f 42/42/42 36/36/36 34/34/34 
f 36/36/36 21/21/21 34/34/34 
f 21/21/21 26/26/26 34/34/34 
f 21/21/21 22/22/22 26/26/26 
f 22/22/22 24/24/24 26/26/26 
f 22/22/22 18/18/18 24/24/24 
f 18/18/18 16/16/16 24/24/24 
f 5/5/5 16/16/16 3/3/3 
f 18/18/18 3/3/3 16/16/16 
f 3/3/3 4/4/4 5/5/5 
f 4/4/4 8/8/8 5/5/5 
f 61/61/61 62/62/62 50/50/50 
f 61/61/61 50/50/50 52/52/52 
f 63/63/63 50/50/50 62/62/62 
f 50/50/50 63/63/63 51/51/51 
f 64/64/64 51/51/51 63/63/63 
f 51/51/51 64/64/64 49/49/49 
f 65/65/65 49/49/49 64/64/64 
f 49/49/49 65/65/65 39/39/39 
f 39/39/39 66/66/66 37/37/37 
f 66/66/66 39/39/39 65/65/65 
f 67/67/67 66/66/66 68/68/68 
f 66/66/66 65/65/65 68/68/68 
f 68/68/68 64/64/64 69/69/69 
f 64/64/64 68/68/68 65/65/65 
f 69/69/69 63/63/63 70/70/70 
f 63/63/63 69/69/69 64/64/64 
f 70/70/70 62/62/62 71/71/71 
f 62/62/62 70/70/70 63/63/63 
f 71/71/71 61/61/61 72/72/72 
f 61/61/61 71/71/71 62/62/62 
f 73/73/73 74/74/74 75/75/75 
f 74/74/74 73/73/73 76/76/76 
f 77/77/77 76/76/76 78/78/78 
f 76/76/76 77/77/77 74/74/74 
f 79/79/79 78/78/78 80/80/80 
f 78/78/78 79/79/79 77/77/77 
f 79/79/79 81/81/81 82/82/82 
f 81/81/81 79/79/79 80/80/80 
f 82/82/82 83/83/83 84/84/84 
f 83/83/83 82/82/82 81/81/81 
f 85/85/85 84/84/84 86/86/86 
f 84/84/84 85/85/85 82/82/82 
f 87/87/87 85/85/85 86/86/86 
f 85/85/85 87/87/87 88/88/88 
f 89/89/89 90/90/90 87/87/87 
f 87/87/87 90/90/90 88/88/88 
f 91/91/91 90/90/90 89/89/89 
f 90/90/90 91/91/91 92/92/92 
f 93/93/93 94/94/94 95/95/95 
f 94/94/94 93/93/93 96/96/96 
f 97/97/97 98/98/98 93/93/93 
f 98/98/98 97/97/97 99/99/99 
f 99/99/99 100/100/100 98/98/98 
f 100/100/100 99/99/99 101/101/101 
f 79/79/79 82/82/82 101/101/101 
f 101/101/101 82/82/82 102/102/102 
f 82/82/82 85/85/85 102/102/102 
f 102/102/102 85/85/85 103/103/103 
f 88/88/88 103/103/103 85/85/85 
f 103/103/103 88/88/88 104/104/104 
f 88/88/88 105/105/105 104/104/104 
f 105/105/105 88/88/88 90/90/90 
f 90/90/90 106/106/106 105/105/105 
f 106/106/106 90/90/90 92/92/92 
f 107/107/107 94/94/94 96/96/96 
f 96/96/96 108/108/108 107/107/107 
f 96/96/96 109/109/109 108/108/108 
f 77/77/77 101/101/101 99/99/99 
f 101/101/101 77/77/77 79/79/79 
f 101/101/101 102/102/102 100/100/100 
f 100/100/100 102/102/102 110/110/110 
f 102/102/102 103/103/103 110/110/110 
f 110/110/110 103/103/103 111/111/111 
f 103/103/103 112/112/112 111/111/111 
f 112/112/112 103/103/103 104/104/104 
f 104/104/104 113/113/113 112/112/112 
f 113/113/113 104/104/104 105/105/105 
f 105/105/105 114/114/114 113/113/113 
f 114/114/114 105/105/105 106/106/106 
f 74/74/74 99/99/99 97/97/97 
f 99/99/99 74/74/74 77/77/77 
f 75/75/75 97/97/97 115/115/115 
f 97/97/97 75/75/75 74/74/74 
f 71/71/71 72/72/72 81/81/81 
f 83/83/83 81/81/81 72/72/72 
f 70/70/70 71/71/71 80/80/80 
f 81/81/81 80/80/80 71/71/71 
f 69/69/69 70/70/70 78/78/78 
f 80/80/80 78/78/78 70/70/70 
f 78/78/78 68/68/68 69/69/69 
f 68/68/68 78/78/78 76/76/76 
f 67/67/67 68/68/68 73/73/73 
f 73/73/73 68/68/68 76/76/76 
f 115/115/115 93/93/93 95/95/95 
f 93/93/93 115/115/115 97/97/97 
f 93/93/93 98/98/98 96/96/96 
f 98/98/98 109/109/109 96/96/96 
f 116/116/116 98/98/98 100/100/100 
f 116/116/116 109/109/109 98/98/98 
f 116/116/116 110/110/110 117/117/117 
f 110/110/110 116/116/116 100/100/100 
f 110/110/110 118/118/118 117/117/117 
f 118/118/118 110/110/110 111/111/111 
f 111/111/111 119/119/119 118/118/118 
f 119/119/119 111/111/111 112/112/112 
f 112/112/112 120/120/120 119/119/119 
f 120/120/120 112/112/112 113/113/113 
f 113/113/113 121/121/121 120/120/120 
f 113/113/113 114/114/114 121/121/121 
# 189 faces

