# 3ds Max Wavefront OBJ Exporter v0.97b - (c)2007 guruware
# File Created: 02.07.2020 11:39:37

mtllib Pared_1_obj.mtl

#
# object pared1_low
#

v  -67.6739 401.5677 0.1297
v  72.5024 6.6060 0.1296
v  72.5024 401.5678 0.1297
v  -67.6739 6.6060 0.1296
# 4 vertices

vn -0.0000 -0.0000 1.0000
# 1 vertex normals

vt 0.8795 0.9957 0.0000
vt 0.0073 0.7270 0.0000
vt 0.8802 0.7292 0.0000
vt 0.0066 0.9934 0.0000
# 4 texture coords

o pared1_low
g pared1_low
usemtl wire_086225142
s off
f 1/1/1 2/2/1 3/3/1 
f 2/2/1 1/1/1 4/4/1 
# 2 faces

